<?xml version="1.0" encoding="UTF-8" standalone="no"?>
<!-- Generator: Adobe Illustrator 23.0.1, SVG Export Plug-In . SVG Version: 6.00 Build 0)  -->

<svg
   xmlns:dc="http://purl.org/dc/elements/1.1/"
   xmlns:cc="http://creativecommons.org/ns#"
   xmlns:rdf="http://www.w3.org/1999/02/22-rdf-syntax-ns#"
   xmlns:svg="http://www.w3.org/2000/svg"
   xmlns="http://www.w3.org/2000/svg"
   xmlns:sodipodi="http://sodipodi.sourceforge.net/DTD/sodipodi-0.dtd"
   xmlns:inkscape="http://www.inkscape.org/namespaces/inkscape"
   version="1.1"
   id="Livello_1"
   x="0px"
   y="0px"
   width="436.81305"
   height="439.99899"
   viewBox="0 0 436.81306 439.99899"
   enable-background="new 0 0 1384.298 440"
   xml:space="preserve"
   sodipodi:docname="LaLiga-cropped.svg"
   inkscape:version="0.92.4 (5da689c313, 2019-01-14)"><metadata
   id="metadata8258"><rdf:RDF><cc:Work
       rdf:about=""><dc:format>image/svg+xml</dc:format><dc:type
         rdf:resource="http://purl.org/dc/dcmitype/StillImage" /><dc:title></dc:title></cc:Work></rdf:RDF></metadata><defs
   id="defs8256" /><sodipodi:namedview
   pagecolor="#ffffff"
   bordercolor="#666666"
   borderopacity="1"
   objecttolerance="10"
   gridtolerance="10"
   guidetolerance="10"
   inkscape:pageopacity="0"
   inkscape:pageshadow="2"
   inkscape:window-width="2880"
   inkscape:window-height="1690"
   id="namedview8254"
   showgrid="false"
   fit-margin-top="0"
   fit-margin-left="0"
   fit-margin-right="0"
   fit-margin-bottom="0"
   inkscape:zoom="1.7178382"
   inkscape:cx="342.92572"
   inkscape:cy="219.999"
   inkscape:window-x="-12"
   inkscape:window-y="-12"
   inkscape:window-maximized="1"
   inkscape:current-layer="Livello_1" />
<g
   id="g8251">
	<g
   id="g8227">
		
		
		
		
		
		
	</g>
	<g
   id="g8249">
		<path
   d="m 159.272,183.799 c 8.568,-11.424 20.443,-20.33 34.047,-24.802 -1.891,2.029 -3.821,4.021 -5.687,6.063 8.004,-1.165 16.209,-0.063 23.712,2.919 0.814,7.14 1.516,14.293 2.53,21.395 1.791,-6.99 1.929,-14.293 2.919,-21.42 7.541,-3.056 15.783,-3.971 23.85,-2.931 -2.054,-2.067 -4.146,-4.084 -6.238,-6.1 13.579,4.434 25.829,13.077 34.072,24.802 -2.38,-1.203 -4.773,-2.367 -7.178,-3.507 3.056,7.178 5.349,14.969 4.434,22.848 -6.188,3.833 -13.541,5.524 -19.491,9.796 7.04,-1.253 14.029,-2.831 21.044,-4.171 5.336,6.125 8.643,13.716 10.297,21.608 1.328,-2.405 2.618,-4.823 3.821,-7.29 0.075,14.355 -4.948,28.247 -12.94,40.047 0.413,-2.731 0.789,-5.461 1.127,-8.192 -5.937,5.223 -12.814,9.445 -20.518,11.437 -5.173,-5.198 -9.745,-10.973 -15.082,-15.984 2.455,6.952 7.616,12.677 10.009,19.591 -4.033,6.789 -10.272,11.862 -16.948,15.908 2.555,0.514 5.123,0.99 7.679,1.528 -6.639,1.804 -13.453,2.931 -20.33,3.232 -7.24,-0.125 -14.355,-1.591 -21.395,-3.144 2.643,-0.438 5.223,-1.127 7.816,-1.766 -6.814,-4.021 -12.852,-9.407 -17.036,-16.171 3.507,-6.451 7.428,-12.677 10.66,-19.266 -5.624,4.773 -10.159,10.685 -15.207,16.034 -7.892,-1.679 -14.568,-6.326 -20.806,-11.173 0.426,2.631 0.914,5.261 1.453,7.879 -8.418,-11.462 -13.203,-25.566 -13.215,-39.796 1.328,2.342 2.543,4.747 3.846,7.115 1.641,-7.942 4.935,-15.583 10.359,-21.671 7.065,1.39 14.067,3.182 21.207,4.146 -6.276,-3.783 -13.203,-6.288 -19.779,-9.457 -0.664,-7.979 1.315,-15.871 4.497,-23.136 -2.531,1.174 -5.011,2.426 -7.529,3.629 m 24.803,29.424 c 3.67,11.925 7.591,23.762 11.524,35.6 12.338,-0.05 24.664,0 37.003,-0.025 3.808,-11.825 7.654,-23.637 11.537,-35.45 -9.908,-7.428 -20.067,-14.518 -30.001,-21.909 -10.096,7.153 -20.042,14.544 -30.063,21.784 z"
   id="path8229"
   inkscape:connector-curvature="0"
   style="fill:#ffffff" />
		<path
   d="m 192.73,0 h 5.374 c 5.198,26.305 9.808,52.723 14.881,79.054 0.952,4.284 1.503,8.656 1.566,13.052 -29.362,4.76 -56.343,22.773 -71.262,48.615 -0.939,2.643 -3.883,3.507 -6.125,1.766 -24.439,-14.042 -48.727,-28.36 -73.154,-42.439 -1.478,-1.177 -4.372,-2.18 -3.282,-4.572 1.303,-3.77 3.808,-6.965 5.912,-10.309 C 81.672,61.943 101.852,42.114 125.176,27.27 145.719,13.979 168.918,5.286 192.73,0 Z"
   id="path8231"
   inkscape:connector-curvature="0"
   style="fill:#901480" />
		<path
   d="m 231.324,22.309 c 48.089,-4.585 97.655,9.482 136.036,38.832 3.683,2.981 7.804,5.562 10.848,9.232 1.616,1.967 -0.639,3.908 -1.741,5.411 -16.86,19.416 -33.671,38.869 -50.494,58.298 -2.167,2.393 -4.021,5.111 -6.551,7.127 -2.455,1.34 -4.246,-1.04 -6.05,-2.317 -18.99,-15.996 -44.218,-24.213 -68.97,-22.923 -4.196,0.138 -8.317,1.127 -12.514,1.027 -1.328,-1.34 -1.754,-3.169 -2.017,-4.96 -3.595,-24.865 -7.328,-49.704 -10.986,-74.557 -0.551,-4.109 -1.553,-8.217 -1.328,-12.376 4.009,-2.668 9.195,-2.004 13.767,-2.794 z"
   id="path8233"
   inkscape:connector-curvature="0"
   style="fill:#ff0000" />
		<path
   d="m 203.803,150.066 c 19.892,-2.969 40.886,2.919 56.494,15.583 14.869,11.9 24.89,29.788 26.944,48.752 2.017,16.372 -1.691,33.408 -10.422,47.412 -9.746,15.896 -25.742,27.834 -43.78,32.568 -16.096,4.234 -33.671,2.981 -48.89,-3.846 -16.547,-7.315 -30.201,-20.906 -37.529,-37.454 -8.455,-18.927 -8.418,-41.475 0.175,-60.364 10.047,-22.722 32.344,-39.457 57.008,-42.651 m -44.531,33.733 c 2.518,-1.203 4.998,-2.455 7.528,-3.633 -3.182,7.265 -5.161,15.157 -4.497,23.136 6.576,3.169 13.503,5.674 19.779,9.457 -7.14,-0.965 -14.142,-2.756 -21.207,-4.146 -5.424,6.088 -8.718,13.729 -10.359,21.671 -1.303,-2.367 -2.518,-4.773 -3.846,-7.115 0.013,14.23 4.798,28.335 13.215,39.796 -0.539,-2.618 -1.027,-5.249 -1.453,-7.879 6.238,4.848 12.915,9.495 20.806,11.173 5.048,-5.349 9.583,-11.261 15.207,-16.034 -3.232,6.589 -7.153,12.814 -10.66,19.265 4.184,6.764 10.221,12.151 17.036,16.172 -2.593,0.639 -5.173,1.328 -7.816,1.766 7.04,1.553 14.155,3.019 21.395,3.144 6.877,-0.301 13.691,-1.428 20.33,-3.232 -2.555,-0.539 -5.123,-1.015 -7.679,-1.528 6.677,-4.046 12.915,-9.119 16.948,-15.908 -2.393,-6.915 -7.553,-12.639 -10.009,-19.591 5.336,5.011 9.908,10.785 15.082,15.984 7.704,-1.992 14.581,-6.213 20.518,-11.437 -0.338,2.731 -0.714,5.461 -1.127,8.192 7.992,-11.8 13.015,-25.692 12.94,-40.047 -1.203,2.468 -2.493,4.885 -3.821,7.29 -1.653,-7.892 -4.96,-15.483 -10.297,-21.608 -7.015,1.34 -14.004,2.919 -21.044,4.171 5.95,-4.271 13.303,-5.963 19.491,-9.796 0.914,-7.879 -1.378,-15.67 -4.434,-22.848 2.405,1.14 4.798,2.305 7.178,3.507 -8.242,-11.725 -20.493,-20.368 -34.072,-24.802 2.092,2.017 4.184,4.033 6.238,6.1 -8.067,-1.04 -16.309,-0.125 -23.85,2.931 -0.99,7.127 -1.127,14.43 -2.919,21.42 -1.015,-7.102 -1.716,-14.255 -2.53,-21.395 -7.503,-2.981 -15.708,-4.084 -23.712,-2.919 1.866,-2.042 3.795,-4.033 5.687,-6.063 -13.603,4.476 -25.478,13.382 -34.046,24.806 z"
   id="path8235"
   inkscape:connector-curvature="0" />
		<path
   d="m 184.074,213.223 c 10.021,-7.24 19.967,-14.631 30.063,-21.783 9.933,7.391 20.092,14.48 30.001,21.909 -3.883,11.812 -7.729,23.625 -11.537,35.45 -12.338,0.025 -24.664,-0.025 -37.003,0.025 -3.933,-11.838 -7.853,-23.676 -11.524,-35.601 z"
   id="path8237"
   inkscape:connector-curvature="0" />
		<path
   d="m 28.272,98.131 c 1.503,-0.939 3.044,0.489 4.409,1.015 24.94,13.441 49.917,26.794 74.87,40.197 2.518,0.977 3.52,3.858 1.729,6.013 -13.766,25.391 -15.483,56.769 -4.86,83.601 1.478,2.28 -0.739,4.384 -2.869,5.048 -23.788,9.207 -47.6,18.339 -71.4,27.533 -3.708,1.365 -7.303,3.132 -11.173,4.021 -1.19,-0.526 -2.042,-1.365 -2.555,-2.53 -20.568,-51.997 -16.885,-112.812 9.445,-162.103 0.512,-1.229 1.314,-2.156 2.404,-2.795 z"
   id="path8239"
   inkscape:connector-curvature="0"
   style="fill:#004ad0" />
		<path
   d="m 371.493,103.367 c 2.981,-1.791 5.512,2.004 7.516,3.758 39.308,38.619 60.891,94.499 57.446,149.502 -0.426,0.564 -1.278,1.666 -1.704,2.217 -28.36,-0.914 -56.719,-2.756 -85.079,-3.896 -2.355,-0.313 -5.487,0.213 -7.102,-1.954 -0.401,-4.134 -0.025,-8.28 -0.225,-12.414 -1.24,-25.541 -12.777,-50.418 -31.504,-67.83 -2.405,-1.729 -1.165,-4.885 0.701,-6.451 20.068,-20.893 39.722,-42.213 59.951,-62.932 z"
   id="path8241"
   inkscape:connector-curvature="0"
   style="fill:#ff7d00" />
		<path
   d="m 78.853,255.024 c 2.004,-0.664 4.297,-2.18 6.363,-0.914 0.99,1.29 1.653,2.793 2.38,4.259 10.221,22.585 29.399,40.911 52.247,50.444 3.783,1.691 7.904,2.53 11.562,4.497 0.727,2.029 0.05,4.159 -0.514,6.138 -8.668,27.558 -17.199,55.153 -25.817,82.724 -1.541,0.313 -3.056,0.301 -4.572,-0.038 C 67.905,386.074 23.236,346.303 0.939,296.06 0.075,293.905 0.212,291.525 0,289.258 26.218,277.709 52.611,266.535 78.853,255.024 Z"
   id="path8243"
   inkscape:connector-curvature="0"
   style="fill:#0090ff" />
		<path
   d="m 314.824,265.646 c 2.205,-1.29 4.785,-0.739 7.178,-0.639 27.746,2.305 55.529,4.271 83.263,6.589 2.192,-0.175 3.445,2.067 3.056,4.033 -3.858,55.391 -33.095,108.29 -77.676,141.31 -1.566,1.027 -3.282,1.741 -4.948,2.543 -17.011,-22.585 -33.433,-45.608 -50.318,-68.294 -1.516,-2.142 -3.294,-4.221 -3.958,-6.802 0.413,-1.616 1.992,-2.443 3.132,-3.482 20.18,-14.956 34.097,-37.93 38.443,-62.619 0.801,-4.184 0.889,-8.48 1.828,-12.639 z"
   id="path8245"
   inkscape:connector-curvature="0"
   style="fill:#ffe500" />
		<path
   d="m 241.783,329.255 c 1.791,-1.678 4.309,-1.09 5.487,0.977 15.044,22.184 29.888,44.519 44.894,66.74 1.628,2.418 3.357,4.81 4.572,7.503 -1.19,3.219 -4.61,4.547 -7.228,6.363 -25.666,16.121 -55.116,26.155 -85.292,28.973 -12.451,-0.2 -24.94,-0.351 -37.379,0.188 -10.81,-1.428 -21.633,-3.094 -32.155,-6.025 -1.766,-0.326 -2.994,-1.666 -4.309,-2.743 8.117,-28.535 15.771,-57.208 23.8,-85.768 0.338,-2.418 2.869,-3.795 5.048,-2.668 27.772,7.892 58.675,2.543 82.562,-13.54 z"
   id="path8247"
   inkscape:connector-curvature="0"
   style="fill:#00aa00" />
	</g>
</g>
</svg>